# xmcd
#
# Track frame offsets:
#	150
#	8481
#	20976
#	36132
#	52004
#	62579
#	75690
#	86651
#	96574
#	107610
#
# Disc length: 1583 seconds
#
# Revision: 0
# Processed by: cddbd v1.5.2PL0 Copyright (c) Steve Scherf et al.
# Submitted via: EasyCDDAExtractor 2010.6.0.0
#
DISCID=7b062d0a
DTITLE=Louvin Charlie - Cash On The Barrel Head
DYEAR=1900
DGENRE=
TTITLE0=I Don't Believe You've Met My Baby
TTITLE1=I Take The Chance
TTITLE2=Cash On The Barrel Head
TTITLE3=Two Of A Kind
TTITLE4=Sweeter Than The Flowers
TTITLE5=Don't Let Me Cross Over
TTITLE6=Apartment #9
TTITLE7=Are You Teasing Me
TTITLE8=Same Thing On Our Minds
TTITLE9=If I Could Only Win Your Love
EXTD=
EXTT0=
EXTT1=
EXTT2=
EXTT3=
EXTT4=
EXTT5=
EXTT6=
EXTT7=
EXTT8=
EXTT9=
PLAYORDER=
